<svg width="30" height="30" viewBox="0 0 30 30" fill="none" xmlns="http://www.w3.org/2000/svg">
<g id="Frame" clip-path="url(#clip0_16_42)">
<g id="WhatsApp-Logo-Icon">
<path id="Vector" d="M6.81006 -6.10352e-05C6.15006 0.029939 5.28006 0.089939 4.89006 0.179939C4.29006 0.299939 3.72006 0.479939 3.27006 0.719939C2.70006 0.989939 2.22006 1.34994 1.80006 1.76994C1.35006 2.21994 0.990057 2.69994 0.720057 3.26994C0.480057 3.71994 0.300057 4.28994 0.180057 4.88994C0.0900572 5.27994 0.0300572 6.14994 0.0300572 6.80994C5.72205e-05 7.07994 5.72205e-05 7.43994 5.72205e-05 7.61994V22.38V23.19C0.0300572 23.85 0.0900572 24.72 0.180057 25.11C0.300057 25.71 0.480057 26.28 0.720057 26.73C0.990057 27.3 1.35006 27.78 1.77006 28.2C2.22006 28.65 2.70006 29.01 3.27006 29.28C3.72006 29.52 4.29006 29.7 4.89006 29.82C5.28006 29.91 6.15006 29.97 6.81006 29.97C7.08006 30 7.44006 30 7.62006 30H22.3801H23.1901C23.8501 29.97 24.7201 29.91 25.1101 29.82C25.7101 29.7 26.2801 29.52 26.7301 29.28C27.3001 29.01 27.7801 28.65 28.2001 28.23C28.6501 27.78 29.0101 27.3 29.2801 26.73C29.5201 26.28 29.7001 25.71 29.8201 25.11C29.9101 24.72 29.9701 23.85 29.9701 23.19C30.0001 22.92 30.0001 22.56 30.0001 22.38V6.80994C29.9701 6.14994 29.9101 5.27994 29.8201 4.88994C29.7001 4.28994 29.5201 3.71994 29.2801 3.26994C29.0101 2.69994 28.6501 2.21994 28.2301 1.79994C27.7801 1.34994 27.3001 0.989939 26.7301 0.719939C26.2801 0.479939 25.7101 0.299939 25.1101 0.179939C24.7201 0.089939 23.8501 0.029939 23.1901 0.029939C22.9201 -6.10386e-05 22.5601 -6.10352e-05 22.3801 -6.10352e-05H6.81006Z" fill="url(#paint0_linear_16_42)"/>
<path id="Vector_2" fill-rule="evenodd" clip-rule="evenodd" d="M20.2004 16.9745C19.9332 16.8408 18.6196 16.1946 18.3746 16.1054C18.1297 16.0163 17.9516 15.9717 17.7735 16.2392C17.5953 16.5066 17.0832 17.1082 16.9274 17.2865C16.7715 17.4648 16.6157 17.4871 16.3485 17.3533C16.0812 17.2197 15.2203 16.9376 14.1997 16.0275C13.4054 15.3193 12.8691 14.4445 12.7133 14.1771C12.5574 13.9096 12.6967 13.7651 12.8305 13.6319C12.9506 13.5123 13.0976 13.32 13.2312 13.164C13.3648 13.008 13.4094 12.8966 13.4984 12.7183C13.5875 12.5401 13.543 12.384 13.4762 12.2503C13.4094 12.1166 12.875 10.8019 12.6523 10.267C12.4355 9.7462 12.2152 9.81669 12.0512 9.80849C11.8955 9.80075 11.7172 9.79911 11.539 9.79911C11.3609 9.79911 11.0715 9.86597 10.8265 10.1333C10.5816 10.4008 9.89133 11.047 9.89133 12.3618C9.89133 13.6765 10.8488 14.9467 10.9823 15.125C11.116 15.3033 12.8665 18.0013 15.5469 19.1584C16.1844 19.4336 16.6821 19.5979 17.0702 19.721C17.7103 19.9243 18.2928 19.8956 18.7532 19.8268C19.2665 19.7501 20.334 19.1806 20.5567 18.5567C20.7793 17.9327 20.7793 17.3979 20.7125 17.2865C20.6458 17.1751 20.4677 17.1082 20.2004 16.9745ZM15.325 23.6292H15.3214C13.7265 23.6285 12.1622 23.2003 10.7976 22.3907L10.473 22.1981L7.10901 23.0803L8.00695 19.8014L7.79555 19.4653C6.90586 18.0506 6.436 16.4155 6.43664 14.7366C6.43858 9.83749 10.4259 5.85171 15.3286 5.85171C17.7026 5.85265 19.9342 6.77814 21.6124 8.45761C23.2905 10.1371 24.2142 12.3696 24.2133 14.7437C24.2112 19.6432 20.224 23.6292 15.325 23.6292ZM22.8896 7.18138C20.8706 5.16072 18.1856 4.04738 15.325 4.0462C9.43072 4.0462 4.63348 8.84158 4.63113 14.7359C4.63037 16.62 5.12274 18.4593 6.05854 20.0803L4.54143 25.6201L10.2104 24.1335C11.7723 24.9852 13.5309 25.434 15.3207 25.4347H15.3251C21.2188 25.4347 26.0164 20.6387 26.0188 14.7444C26.0199 11.8879 24.9087 9.20204 22.8896 7.18138Z" fill="white"/>
</g>
</g>
<defs>
<linearGradient id="paint0_linear_16_42" x1="15.0001" y1="30" x2="15.0001" y2="-3.8147e-06" gradientUnits="userSpaceOnUse">
<stop stop-color="#25CF43"/>
<stop offset="1" stop-color="#61FD7D"/>
</linearGradient>
<clipPath id="clip0_16_42">
<rect width="30" height="30" fill="white"/>
</clipPath>
</defs>
</svg>
